<?xml version="1.0" standalone="no"?>
<!DOCTYPE svg PUBLIC "-//W3C//DTD SVG 20010904//EN"
 "http://www.w3.org/TR/2001/REC-SVG-20010904/DTD/svg10.dtd">
<svg version="1.0" xmlns="http://www.w3.org/2000/svg"
 width="384.000000pt" height="308.000000pt" viewBox="0 0 384.000000 308.000000"
 preserveAspectRatio="xMidYMid meet">

<g transform="translate(0.000000,308.000000) scale(0.100000,-0.100000)"
fill="#000000" stroke="none">
<path d="M1534 2515 c-120 -60 -379 -279 -639 -539 -200 -200 -313 -329 -422
-482 l-65 -91 -195 -38 c-127 -25 -197 -43 -200 -52 -3 -8 -4 -16 -1 -18 2 -2
51 7 109 20 117 26 259 54 259 50 0 -1 -22 -44 -49 -96 -57 -109 -91 -212 -91
-276 0 -67 24 -50 32 23 3 32 16 84 28 114 35 88 111 230 129 239 9 5 104 21
211 35 176 23 263 32 501 51 l76 6 11 -83 c13 -100 38 -162 88 -218 48 -53 95
-77 182 -91 86 -14 193 -1 282 35 57 23 60 24 60 5 0 -10 13 -33 29 -51 29
-33 31 -33 113 -32 103 2 251 40 357 92 45 22 87 36 103 34 24 -3 26 -6 18
-28 -26 -68 6 -121 77 -131 60 -7 233 23 352 62 109 37 211 87 211 105 0 15
-33 12 -58 -6 -71 -49 -300 -118 -438 -130 -60 -6 -78 -4 -100 11 -27 18 -28
27 -8 123 l6 33 -36 -6 c-40 -8 -86 14 -86 40 0 8 -7 15 -15 15 -18 0 -20 -41
-3 -58 26 -26 -217 -114 -357 -128 -69 -7 -95 2 -121 42 -13 20 -15 30 -6 49
17 38 -1 39 -71 6 -166 -79 -334 -78 -440 3 -47 36 -94 131 -109 218 -18 108
-33 102 228 95 167 -4 224 -2 221 6 -5 18 -172 29 -324 23 -154 -7 -142 -19
-118 120 32 180 104 358 263 646 100 182 122 238 102 263 -17 21 -38 19 -96
-10z m76 -27 c0 -7 -34 -76 -76 -153 -218 -406 -282 -570 -309 -792 l-7 -52
-61 -5 c-34 -3 -125 -10 -202 -16 -134 -11 -397 -42 -472 -56 l-36 -7 19 32
c35 60 179 238 299 371 319 353 846 776 845 678z"/>
<path d="M3329 1651 c-61 -20 -159 -99 -159 -128 0 -21 9 -16 66 36 56 52 130
79 179 67 38 -10 60 -60 46 -106 -22 -75 -141 -219 -305 -369 -44 -40 -65 -66
-59 -72 26 -26 723 242 723 278 0 19 -14 16 -68 -11 -99 -50 -532 -216 -563
-216 -5 0 36 44 90 98 103 102 192 220 212 279 25 76 -16 143 -93 149 -24 2
-55 0 -69 -5z"/>
<path d="M1973 1409 c-32 -9 -42 -22 -25 -33 15 -9 92 16 92 30 0 16 -20 17
-67 3z"/>
</g>
</svg>
