<?xml version="1.0" encoding="utf-8"?>
<!DOCTYPE svg PUBLIC "-//W3C//DTD SVG 20010904//EN" "http://www.w3.org/TR/2001/REC-SVG-20010904/DTD/svg10.dtd">
<svg version="1.0" xmlns="http://www.w3.org/2000/svg" width="272pt" height="216pt" viewBox="0 0 272 216" style="" preserveAspectRatio="xMidYMid meet">
<g fill="#1975BBFF" stroke="#1975BBFF">
<path d="M 158.000 2.647 C 150.850 3.828 151.468 1.678 151.788 24.243 L 152.076 44.575 156.171 47.037 C 158.423 48.392 162.588 52.288 165.427 55.695 C 170.395 61.659 172.359 65.505 185.746 95.500 C 192.845 111.406 193.041 111.840 199.249 125.500 C 207.886 144.506 208.661 146.738 207.336 148.779 C 205.471 151.652 201.976 150.456 191.000 143.188 C 185.225 139.364 178.733 135.245 176.574 134.036 C 170.251 130.494 157.733 124.218 154.711 123.075 L 151.922 122.020 152.046 140.740 L 152.169 159.460 163.932 163.556 C 182.080 169.875 195.175 177.621 215.978 194.341 C 221.741 198.973 227.028 202.543 227.728 202.274 C 228.737 201.887 229.000 189.616 229.000 142.834 C 229.000 101.085 229.313 84.076 230.074 84.546 C 230.826 85.010 230.845 84.653 230.138 83.355 C 228.897 81.073 214.000 43.547 214.000 42.701 C 214.000 42.366 211.727 38.133 208.948 33.296 C 198.267 14.697 183.794 4.402 166.000 2.746 C 162.975 2.464 159.375 2.420 158.000 2.647 "/></g>
<g fill="#54C4F0FF" stroke="#54C4F0FF">
<path d="M 61.500 105.642 C 47.007 107.294 39.917 108.480 35.538 109.987 C 17.999 116.021 6.072 126.906 3.073 139.613 C 0.463 150.673 6.984 162.979 17.549 166.933 C 25.160 169.780 28.918 169.555 43.159 165.397 C 61.234 160.119 64.472 159.334 75.500 157.548 C 81.000 156.657 86.528 155.707 87.784 155.437 L 90.068 154.945 89.784 130.472 C 89.602 114.831 89.861 105.847 90.500 105.578 C 91.675 105.084 65.894 105.141 61.500 105.642 "/></g>
<g fill="#2A4A97FF" stroke="#2A4A97FF">
<path d="M 229.016 141.063 C 228.982 187.022 228.684 201.577 227.766 202.145 C 225.998 203.237 231.079 207.276 236.791 209.318 C 239.381 210.244 244.875 211.261 249.000 211.578 C 255.572 212.084 257.057 211.868 261.000 209.828 C 267.242 206.599 269.467 201.869 269.386 192.000 C 269.315 183.436 267.554 176.527 261.995 163.000 C 259.847 157.775 252.392 139.100 245.427 121.500 C 238.461 103.900 232.297 88.375 231.728 87.000 C 231.158 85.625 230.571 83.896 230.421 83.158 C 229.306 77.642 229.054 87.994 229.016 141.063 "/></g>
<g fill="#1975BBFF" stroke="#1975BBFF">
<path d="M 93.500 168.666 C 85.508 169.643 76.460 171.280 65.846 173.668 C 54.490 176.224 54.177 176.367 53.596 179.271 C 51.694 188.781 53.670 197.207 59.303 203.607 C 75.259 221.733 104.558 214.414 111.484 190.570 C 112.294 187.782 114.036 181.563 115.355 176.750 L 117.754 168.000 107.127 168.150 C 101.282 168.232 95.150 168.465 93.500 168.666 "/></g>
<g fill="#2691CFFF" stroke="#2691CFFF">
<path d="M 100.000 129.412 C 100.000 144.471 100.362 153.000 101.000 153.000 C 101.638 153.000 102.000 144.667 102.000 130.000 C 102.000 115.333 102.362 107.000 103.000 107.000 C 103.638 107.000 104.000 115.476 104.000 130.427 C 104.000 151.897 103.854 153.892 102.250 154.311 C 101.288 154.562 105.450 154.823 111.500 154.891 C 120.527 154.991 130.362 156.107 150.000 159.259 C 150.825 159.392 151.613 159.163 151.750 158.750 C 151.888 158.338 152.000 149.916 152.000 140.035 C 152.000 119.062 153.984 122.042 135.551 115.326 C 123.525 110.944 112.291 107.776 104.250 106.499 L 100.000 105.824 100.000 129.412 "/></g>
<g fill="#1975BBFF" stroke="#1975BBFF">
<path d="M 120.932 57.439 C 118.419 58.133 113.199 60.363 109.331 62.395 C 103.197 65.619 102.032 66.691 100.206 70.795 C 92.720 87.613 86.000 103.381 86.000 104.126 C 86.000 104.607 87.913 105.002 90.250 105.004 C 96.494 105.010 111.379 107.596 120.689 110.293 L 128.825 112.649 129.457 108.075 C 130.639 99.506 134.218 82.517 136.182 76.151 C 137.510 71.848 139.436 68.398 142.157 65.445 C 144.366 63.049 145.908 60.661 145.585 60.138 C 144.496 58.376 135.683 55.999 130.572 56.089 C 127.782 56.139 123.444 56.746 120.932 57.439 "/></g>
<g fill="#2691CFFF" stroke="#2691CFFF">
<path d="M 144.225 5.842 C 137.609 8.408 127.728 16.149 122.132 23.151 C 116.758 29.874 108.635 44.301 109.651 45.317 C 109.982 45.649 111.454 45.299 112.921 44.541 C 117.317 42.267 127.432 40.000 133.176 40.000 C 138.091 40.000 145.800 41.567 150.272 43.475 C 151.938 44.186 152.027 43.052 151.772 24.378 C 151.468 2.156 151.776 2.913 144.225 5.842 "/></g>
<g fill="#2A4A97FF" stroke="#2A4A97FF">
<path d="M 93.500 155.618 C 86.104 156.327 63.515 160.216 61.925 161.054 C 60.292 161.914 54.376 174.710 55.221 175.555 C 55.485 175.818 59.660 175.093 64.500 173.944 C 80.317 170.187 89.280 168.897 103.709 168.298 L 117.919 167.709 119.047 162.275 C 119.667 159.287 119.879 156.546 119.518 156.184 C 118.778 155.445 99.648 155.028 93.500 155.618 "/></g>
<g fill="#2A4A97FF" stroke="#2A4A97FF">
<path d="M 122.108 46.987 C 111.191 49.933 108.982 51.520 105.367 59.009 C 103.643 62.579 102.518 65.491 102.867 65.479 C 103.215 65.468 106.425 63.938 110.000 62.080 C 117.719 58.068 124.803 56.028 131.072 56.012 C 136.469 55.998 144.933 58.663 145.681 60.612 C 146.101 61.706 146.688 61.604 148.592 60.106 C 149.903 59.075 153.031 57.923 155.541 57.546 L 160.106 56.861 155.846 53.490 C 146.438 46.045 134.280 43.701 122.108 46.987 "/></g>
<g fill="#4CBFEBFF" stroke="#4CBFEBFF">
<path d="M 90.312 105.728 C 89.865 105.876 89.725 116.913 90.000 130.254 L 90.500 154.509 94.216 154.828 L 97.931 155.147 98.216 130.654 L 98.500 106.161 94.812 105.810 C 92.783 105.617 90.758 105.580 90.312 105.728 "/></g>
<g fill="#33333305" stroke="#33333305">
<path d="M 139.500 41.984 C 143.480 42.983 142.964 43.090 133.000 43.337 C 128.301 43.454 121.995 44.333 118.897 45.303 C 113.568 46.971 105.000 53.037 105.000 55.142 C 105.000 55.684 103.856 58.630 102.457 61.688 C 101.058 64.746 100.091 67.424 100.306 67.640 C 100.522 67.856 102.314 64.448 104.288 60.068 C 107.320 53.339 108.478 51.797 111.749 50.128 C 122.642 44.571 137.834 43.607 147.436 47.864 C 152.546 50.129 160.915 55.934 160.969 57.250 C 160.986 57.663 159.313 58.007 157.250 58.015 C 155.188 58.024 152.877 58.425 152.115 58.908 C 151.262 59.448 152.604 59.604 155.615 59.314 C 163.410 58.562 163.681 58.320 160.482 54.981 C 156.017 50.320 158.325 50.378 163.157 55.048 C 165.546 57.356 165.017 56.602 161.982 53.372 C 155.804 46.797 147.490 42.180 140.783 41.601 C 137.322 41.302 137.076 41.376 139.500 41.984 "/></g>
<g fill="#2793D1FF" stroke="#2793D1FF">
<path d="M 98.750 106.582 C 98.338 106.995 98.000 118.019 98.000 131.078 C 98.000 153.153 98.123 154.799 99.750 154.488 C 100.713 154.304 102.063 154.119 102.750 154.077 C 104.344 153.979 104.594 107.000 103.000 107.000 C 102.362 107.000 102.000 115.333 102.000 130.000 C 102.000 144.384 101.632 153.000 101.018 153.000 C 100.411 153.000 99.934 144.000 99.768 129.416 C 99.621 116.444 99.163 106.169 98.750 106.582 "/></g>
<g fill="#33333305" stroke="#33333305">
<path d="M 164.000 1.905 C 182.638 3.394 195.692 11.562 207.302 29.000 C 210.049 33.125 212.048 35.790 211.745 34.921 C 210.648 31.778 204.082 22.398 199.839 17.914 C 189.127 6.593 179.304 1.971 165.000 1.523 L 155.500 1.226 164.000 1.905 "/></g>
<g fill="#33333305" stroke="#33333305">
<path d="M 145.387 3.885 C 136.504 6.915 120.343 20.142 118.129 26.194 C 117.783 27.139 119.206 25.720 121.292 23.042 C 128.169 14.211 138.543 6.859 148.107 4.038 C 151.623 3.001 153.600 2.150 152.500 2.147 C 151.400 2.143 148.199 2.925 145.387 3.885 "/></g>
<g fill="#33333305" stroke="#33333305">
<path d="M 159.500 124.401 C 164.450 126.746 171.782 130.528 175.793 132.805 C 179.803 135.083 182.835 136.542 182.529 136.047 C 181.277 134.020 153.208 119.784 151.029 120.069 C 150.738 120.107 154.550 122.057 159.500 124.401 "/></g>
<g fill="#33333305" stroke="#33333305">
<path d="M 119.500 42.880 C 116.200 43.836 112.517 45.154 111.316 45.809 C 108.241 47.486 107.779 47.314 108.480 44.750 C 109.036 42.719 108.983 42.680 107.944 44.346 C 106.088 47.323 108.347 48.805 111.760 46.850 C 114.340 45.372 124.471 42.483 130.000 41.649 C 131.712 41.391 131.396 41.252 129.000 41.207 C 127.075 41.172 122.800 41.924 119.500 42.880 "/></g>
<g fill="#33333305" stroke="#33333305">
<path d="M 132.071 95.500 C 131.866 97.875 129.881 109.642 129.438 111.113 C 129.072 112.329 130.130 113.069 133.726 114.113 C 140.429 116.060 141.493 115.814 135.438 113.717 L 130.376 111.964 131.696 104.256 C 132.422 100.017 132.823 96.087 132.587 95.524 C 132.313 94.870 132.127 94.862 132.071 95.500 "/></g>
<g fill="#33333305" stroke="#33333305">
<path d="M 145.312 63.291 C 140.924 66.478 136.523 74.449 135.465 81.125 C 135.122 83.293 135.595 82.532 136.787 79.000 C 139.472 71.047 140.678 68.983 145.333 64.374 L 149.500 60.248 145.312 63.291 "/></g>
<g fill="#33333305" stroke="#33333305">
<path d="M 260.000 156.250 C 260.000 156.571 260.950 159.009 262.112 161.667 C 263.274 164.325 265.295 169.425 266.605 173.000 C 268.073 177.006 268.757 178.157 268.388 176.000 C 267.650 171.679 260.000 153.667 260.000 156.250 "/></g>
<g fill="#33333305" stroke="#33333305">
<path d="M 120.430 158.750 C 120.096 160.263 119.179 164.155 118.394 167.399 C 117.608 170.644 117.136 173.469 117.344 173.678 C 117.768 174.101 119.607 167.625 120.803 161.500 C 121.499 157.936 121.961 157.433 125.042 156.882 L 128.500 156.263 124.769 156.132 C 121.468 156.015 120.968 156.317 120.430 158.750 "/></g>
<g fill="#33333305" stroke="#33333305">
<path d="M 87.032 97.421 L 84.803 102.913 78.151 103.261 L 71.500 103.608 78.305 103.804 L 85.110 104.000 87.597 98.376 C 88.965 95.282 89.899 92.566 89.673 92.340 C 89.447 92.113 88.258 94.400 87.032 97.421 "/></g>
<g fill="#33333305" stroke="#33333305">
<path d="M 55.500 162.594 C 52.070 163.732 51.963 163.845 54.750 163.381 C 56.538 163.084 58.000 163.057 58.000 163.321 C 58.000 163.585 56.879 166.209 55.510 169.151 C 54.140 172.093 53.047 175.175 53.080 176.000 C 53.114 176.825 53.730 175.900 54.450 173.945 C 55.171 171.990 56.745 168.459 57.950 166.098 C 59.154 163.738 59.996 161.685 59.820 161.536 C 59.644 161.388 57.700 161.863 55.500 162.594 "/></g>
<g fill="#33333305" stroke="#33333305">
<path d="M 189.000 106.261 C 189.000 107.351 197.730 126.119 198.237 126.119 C 198.719 126.119 190.282 106.949 189.422 106.089 C 189.190 105.857 189.000 105.934 189.000 106.261 "/></g>
<g fill="#33333305" stroke="#33333305">
<path d="M 184.109 137.365 C 185.342 138.754 201.000 148.742 200.987 148.132 C 200.980 147.784 197.717 145.421 193.737 142.879 C 185.835 137.834 183.170 136.308 184.109 137.365 "/></g>
<g fill="#33333305" stroke="#33333305">
<path d="M 176.383 78.000 C 177.169 80.850 184.302 96.031 184.678 95.655 C 184.885 95.448 183.011 91.053 180.512 85.889 C 178.013 80.725 176.155 77.175 176.383 78.000 "/></g>
<g fill="#33333305" stroke="#33333305">
<path d="M 251.000 212.000 L 242.500 212.627 250.500 212.798 C 254.900 212.892 259.175 212.533 260.000 212.000 C 260.825 211.467 261.050 211.108 260.500 211.202 C 259.950 211.296 255.675 211.655 251.000 212.000 "/></g>
<g fill="#33333305" stroke="#33333305">
<path d="M 113.526 185.816 C 112.440 190.042 111.561 193.950 111.571 194.500 C 111.612 196.559 115.248 183.539 115.371 180.892 C 115.442 179.374 114.612 181.589 113.526 185.816 "/></g>
<g fill="#33333305" stroke="#33333305">
<path d="M 21.000 115.132 C 17.425 117.394 14.224 119.752 13.886 120.372 C 13.548 120.993 14.223 120.762 15.386 119.861 C 16.549 118.959 20.200 116.598 23.500 114.613 C 26.800 112.629 29.050 111.008 28.500 111.012 C 27.950 111.016 24.575 112.870 21.000 115.132 "/></g>
<g fill="#33333305" stroke="#33333305">
<path d="M 38.000 167.555 C 35.525 168.333 32.150 169.044 30.500 169.135 C 27.611 169.294 27.598 169.315 30.151 169.707 C 32.736 170.104 45.485 166.960 43.500 166.416 C 42.950 166.265 40.475 166.778 38.000 167.555 "/></g>
<g fill="#33333305" stroke="#33333305">
<path d="M 53.039 196.100 C 52.991 198.054 57.696 204.599 61.594 208.000 C 63.169 209.375 62.523 208.338 60.158 205.695 C 57.792 203.052 55.232 199.452 54.468 197.695 C 53.703 195.938 53.061 195.220 53.039 196.100 "/></g>
<g fill="#33333305" stroke="#33333305">
<path d="M 194.276 179.638 C 194.598 180.158 197.621 182.365 200.993 184.542 L 207.125 188.500 201.813 184.435 C 195.562 179.652 193.457 178.312 194.276 179.638 "/></g>
<g fill="#33333305" stroke="#33333305">
<path d="M 10.414 123.383 C 7.865 126.155 3.000 133.389 3.004 134.400 C 3.006 135.005 3.952 133.925 5.106 132.000 C 6.260 130.075 8.363 127.267 9.779 125.760 C 11.195 124.254 12.162 122.837 11.927 122.611 C 11.692 122.386 11.011 122.733 10.414 123.383 "/></g>
<g fill="#33333305" stroke="#33333305">
<path d="M 98.831 209.127 C 97.363 210.184 94.438 211.719 92.331 212.539 C 89.230 213.746 89.072 213.917 91.500 213.437 C 94.675 212.809 100.921 209.339 101.284 208.000 C 101.403 207.563 100.299 208.070 98.831 209.127 "/></g>
<g fill="#33333305" stroke="#33333305">
<path d="M 268.634 202.769 C 267.608 205.117 265.634 207.929 264.249 209.019 C 262.864 210.108 262.201 211.000 262.776 211.000 C 264.505 211.000 268.864 205.167 269.709 201.721 C 270.339 199.155 270.121 199.368 268.634 202.769 "/></g>
<g fill="#33333305" stroke="#33333305">
<path d="M 107.000 201.576 L 103.500 207.005 107.275 202.326 C 109.351 199.753 110.926 197.310 110.775 196.898 C 110.624 196.485 108.925 198.591 107.000 201.576 "/></g>
<g fill="#33333305" stroke="#33333305">
<path d="M 1.641 138.210 C 1.303 139.470 1.083 142.525 1.150 145.000 C 1.258 148.935 1.368 148.683 2.023 143.000 C 2.811 136.164 2.668 134.375 1.641 138.210 "/></g>
<g fill="#33333305" stroke="#33333305">
<path d="M 244.106 116.500 C 244.115 117.050 245.215 119.750 246.550 122.500 C 247.885 125.250 248.700 126.375 248.362 125.000 C 247.656 122.134 244.080 114.992 244.106 116.500 "/></g>
<g fill="#33333305" stroke="#33333305">
<path d="M 231.593 84.500 C 233.307 90.041 235.470 95.140 235.244 93.105 C 235.103 91.837 234.085 88.932 232.981 86.649 C 231.878 84.367 231.253 83.400 231.593 84.500 "/></g>
<g fill="#33333305" stroke="#33333305">
<path d="M 221.593 59.500 C 223.307 65.041 225.470 70.140 225.244 68.105 C 225.103 66.837 224.085 63.932 222.981 61.649 C 221.878 59.367 221.253 58.400 221.593 59.500 "/></g>
<g fill="#33333305" stroke="#33333305">
<path d="M 201.045 133.750 C 201.106 134.760 205.897 143.668 205.955 142.877 C 206.025 141.911 201.964 133.000 201.453 133.000 C 201.204 133.000 201.020 133.338 201.045 133.750 "/></g>
<g fill="#33333305" stroke="#33333305">
<path d="M 97.136 73.905 C 94.188 80.758 94.548 81.749 97.569 75.095 C 98.919 72.122 99.855 69.521 99.648 69.315 C 99.441 69.108 98.311 71.174 97.136 73.905 "/></g>
<g fill="#33333305" stroke="#33333305">
<path d="M 214.588 42.750 C 215.888 45.913 216.953 47.825 216.954 47.000 C 216.956 45.360 213.367 37.000 212.661 37.000 C 212.420 37.000 213.287 39.588 214.588 42.750 "/></g>
<g fill="#33333305" stroke="#33333305">
<path d="M 113.083 33.066 C 111.826 35.302 111.056 37.389 111.371 37.704 C 111.686 38.020 112.438 36.978 113.042 35.391 C 113.645 33.803 114.853 31.715 115.725 30.752 C 116.597 29.788 116.873 29.000 116.339 29.000 C 115.805 29.000 114.340 30.830 113.083 33.066 "/></g>
<g fill="#33333305" stroke="#33333305">
<path d="M 92.189 85.549 C 89.176 91.749 89.512 92.617 92.615 86.652 C 94.003 83.986 94.967 81.633 94.757 81.424 C 94.548 81.215 93.392 83.071 92.189 85.549 "/></g>
<g fill="#33333305" stroke="#33333305">
<path d="M 212.000 192.788 C 214.475 194.988 216.405 196.437 216.288 196.008 C 216.171 195.579 214.146 193.779 211.788 192.008 L 207.500 188.789 212.000 192.788 "/></g>
<g fill="#33333305" stroke="#33333305">
<path d="M 156.000 162.500 C 157.925 163.241 160.175 163.848 161.000 163.848 C 161.825 163.848 160.925 163.241 159.000 162.500 C 157.075 161.759 154.825 161.152 154.000 161.152 C 153.175 161.152 154.075 161.759 156.000 162.500 "/></g>
<g fill="#33333305" stroke="#33333305">
<path d="M 4.000 156.680 C 4.000 157.250 5.249 159.017 6.776 160.608 L 9.552 163.500 6.776 159.572 C 5.249 157.411 4.000 156.110 4.000 156.680 "/></g>
<g fill="#33333305" stroke="#33333305">
<path d="M 206.188 146.500 C 206.060 148.200 205.360 149.057 204.000 149.179 C 202.557 149.307 202.627 149.377 204.250 149.429 C 206.069 149.486 206.488 148.974 206.438 146.750 C 206.385 144.448 206.344 144.407 206.188 146.500 "/></g>
<g fill="#33333305" stroke="#33333305">
<path d="M 226.114 71.500 C 226.133 72.050 227.014 74.300 228.072 76.500 C 229.130 78.700 229.715 79.375 229.373 78.000 C 228.668 75.169 226.062 69.970 226.114 71.500 "/></g>
<g fill="#33333305" stroke="#33333305">
<path d="M 234.639 210.039 C 235.128 210.528 237.043 211.057 238.894 211.214 C 241.925 211.472 241.837 211.383 238.005 210.324 C 235.664 209.678 234.149 209.549 234.639 210.039 "/></g>
<g fill="#33333305" stroke="#33333305">
<path d="M 224.764 203.154 C 226.009 204.532 227.919 206.073 229.008 206.580 C 230.096 207.086 229.077 205.959 226.743 204.075 C 223.941 201.813 223.269 201.500 224.764 203.154 "/></g>
<g fill="#33333305" stroke="#33333305">
<path d="M 19.000 169.013 C 19.825 169.539 21.813 169.976 23.417 169.985 C 27.285 170.005 26.443 169.428 21.500 168.670 C 18.776 168.252 17.979 168.362 19.000 169.013 "/></g>
<g fill="#33333305" stroke="#33333305">
<path d="M 252.519 137.699 C 254.017 141.286 255.000 142.905 255.000 141.789 C 255.000 140.710 251.962 134.000 251.473 134.000 C 251.198 134.000 251.669 135.664 252.519 137.699 "/></g>
<g fill="#33333305" stroke="#33333305">
<path d="M 32.500 109.464 C 28.638 111.232 30.434 111.258 35.000 109.500 C 36.925 108.759 37.825 108.138 37.000 108.121 C 36.175 108.104 34.150 108.708 32.500 109.464 "/></g>
<g fill="#33333305" stroke="#33333305">
<path d="M 185.084 97.500 C 185.084 98.050 185.946 100.075 187.000 102.000 C 188.054 103.925 188.916 105.050 188.916 104.500 C 188.916 103.950 188.054 101.925 187.000 100.000 C 185.946 98.075 185.084 96.950 185.084 97.500 "/></g>
<g fill="#33333305" stroke="#33333305">
<path d="M 172.084 68.500 C 172.084 69.050 172.946 71.075 174.000 73.000 C 175.054 74.925 175.916 76.050 175.916 75.500 C 175.916 74.950 175.054 72.925 174.000 71.000 C 172.946 69.075 172.084 67.950 172.084 68.500 "/></g>
<g fill="#33333305" stroke="#33333305">
<path d="M 255.035 143.135 C 255.016 143.485 255.657 145.285 256.461 147.135 C 257.264 148.986 257.923 149.825 257.925 149.000 C 257.929 147.559 255.108 141.834 255.035 143.135 "/></g>
<g fill="#33333305" stroke="#33333305">
<path d="M 241.573 110.000 C 241.941 111.375 242.659 113.175 243.169 114.000 C 243.813 115.042 243.892 114.737 243.427 113.000 C 243.059 111.625 242.341 109.825 241.831 109.000 C 241.187 107.958 241.108 108.263 241.573 110.000 "/></g>
<g fill="#33333305" stroke="#33333305">
<path d="M 168.022 61.342 C 168.010 61.806 168.900 63.329 170.000 64.727 C 171.100 66.126 171.990 66.872 171.978 66.385 C 171.948 65.219 168.051 60.250 168.022 61.342 "/></g>
<g fill="#00000001" stroke="#00000001">
<path d="M 131.000 42.000 C 129.667 42.862 129.667 42.963 131.000 42.914 C 131.825 42.884 133.400 42.473 134.500 42.000 L 136.500 41.141 134.500 41.086 C 133.400 41.055 131.825 41.467 131.000 42.000 "/></g>
<g fill="#33333305" stroke="#33333305">
<path d="M 182.382 172.810 C 182.714 173.346 184.193 174.171 185.670 174.642 C 187.905 175.356 187.804 175.193 185.067 173.667 C 183.259 172.659 182.051 172.274 182.382 172.810 "/></g>
<g fill="#33333305" stroke="#33333305">
<path d="M 12.559 166.468 C 13.626 167.276 15.175 167.948 16.000 167.962 C 16.825 167.976 16.211 167.315 14.636 166.494 C 10.989 164.592 10.063 164.580 12.559 166.468 "/></g>
<g fill="#33333305" stroke="#33333305">
<path d="M 146.000 118.500 C 147.375 119.286 148.950 119.929 149.500 119.929 C 150.050 119.929 149.375 119.286 148.000 118.500 C 146.625 117.714 145.050 117.071 144.500 117.071 C 143.950 117.071 144.625 117.714 146.000 118.500 "/></g>
<g fill="#33333305" stroke="#33333305">
<path d="M 236.071 96.500 C 236.071 97.050 236.714 98.625 237.500 100.000 C 238.286 101.375 238.929 102.050 238.929 101.500 C 238.929 100.950 238.286 99.375 237.500 98.000 C 236.714 96.625 236.071 95.950 236.071 96.500 "/></g>
<g fill="#33333305" stroke="#33333305">
<path d="M 218.071 51.500 C 218.071 52.050 218.714 53.625 219.500 55.000 C 220.286 56.375 220.929 57.050 220.929 56.500 C 220.929 55.950 220.286 54.375 219.500 53.000 C 218.714 51.625 218.071 50.950 218.071 51.500 "/></g>
<g fill="#00000001" stroke="#00000001">
<path d="M 124.500 43.000 C 123.769 44.183 124.748 44.183 127.500 43.000 C 129.428 42.171 129.421 42.138 127.309 42.070 C 126.104 42.032 124.840 42.450 124.500 43.000 "/></g>
<g fill="#33333305" stroke="#33333305">
<path d="M 218.000 197.667 C 218.000 198.205 218.902 199.062 220.004 199.572 L 222.009 200.500 220.004 198.595 C 218.902 197.547 218.000 197.130 218.000 197.667 "/></g>
<g fill="#33333305" stroke="#33333305">
<path d="M 269.063 181.750 C 269.029 182.988 269.435 184.000 269.968 184.000 C 270.573 184.000 270.596 183.156 270.031 181.750 L 269.127 179.500 269.063 181.750 "/></g>
<g fill="#33333305" stroke="#33333305">
<path d="M 178.500 170.592 C 181.223 171.965 181.321 171.962 179.559 170.552 C 178.491 169.699 177.141 169.018 176.559 169.040 C 175.976 169.062 176.850 169.761 178.500 170.592 "/></g>
<g fill="#33333305" stroke="#33333305">
<path d="M 46.500 165.000 C 45.181 165.567 45.011 165.878 46.000 165.914 C 46.825 165.945 48.175 165.533 49.000 165.000 C 50.828 163.819 49.249 163.819 46.500 165.000 "/></g>
<g fill="#2A4A97FF" stroke="#2A4A97FF">
<path d="M 61.000 206.000 L 63.500 208.500 61.000 206.000 L 58.500 203.500 61.000 206.000 "/></g>
<g fill="#00000001" stroke="#00000001">
<path d="M 160.379 53.379 C 160.512 54.282 161.246 55.578 162.012 56.260 C 163.192 57.312 163.202 57.234 162.079 55.750 C 161.351 54.788 161.125 54.000 161.578 54.000 C 162.030 54.000 161.891 53.491 161.269 52.869 C 160.428 52.028 160.200 52.159 160.379 53.379 "/></g>
<g fill="#33333305" stroke="#33333305">
<path d="M 70.000 213.000 C 70.825 213.533 71.950 213.969 72.500 213.969 C 73.050 213.969 72.825 213.533 72.000 213.000 C 71.175 212.467 70.050 212.031 69.500 212.031 C 68.950 212.031 69.175 212.467 70.000 213.000 "/></g>
<g fill="#33333305" stroke="#33333305">
<path d="M 189.417 176.865 C 189.778 177.450 190.845 178.058 191.787 178.215 C 192.868 178.395 192.626 178.002 191.129 177.150 C 189.825 176.408 189.055 176.279 189.417 176.865 "/></g>
<g fill="#33333305" stroke="#33333305">
<path d="M 172.000 168.000 C 172.825 168.533 173.950 168.969 174.500 168.969 C 175.050 168.969 174.825 168.533 174.000 168.000 C 173.175 167.467 172.050 167.031 171.500 167.031 C 170.950 167.031 171.175 167.467 172.000 168.000 "/></g>
<g fill="#33333305" stroke="#33333305">
<path d="M 167.000 166.000 C 167.825 166.533 168.950 166.969 169.500 166.969 C 170.050 166.969 169.825 166.533 169.000 166.000 C 168.175 165.467 167.050 165.031 166.500 165.031 C 165.950 165.031 166.175 165.467 167.000 166.000 "/></g>
<g fill="#33333305" stroke="#33333305">
<path d="M 258.031 151.500 C 258.031 152.050 258.467 153.175 259.000 154.000 C 259.533 154.825 259.969 155.050 259.969 154.500 C 259.969 153.950 259.533 152.825 259.000 152.000 C 258.467 151.175 258.031 150.950 258.031 151.500 "/></g>
<g fill="#33333305" stroke="#33333305">
<path d="M 199.031 128.500 C 199.031 129.050 199.467 130.175 200.000 131.000 C 200.533 131.825 200.969 132.050 200.969 131.500 C 200.969 130.950 200.533 129.825 200.000 129.000 C 199.467 128.175 199.031 127.950 199.031 128.500 "/></g>
<g fill="#00000001" stroke="#00000001">
<path d="M 224.000 203.000 L 226.000 205.000 224.000 203.000 L 222.000 201.000 224.000 203.000 "/></g>
<g fill="#00000001" stroke="#00000001">
<path d="M 107.000 51.888 L 105.500 53.563 107.000 51.888 L 108.500 50.212 107.000 51.888 "/></g>
<g fill="#00000001" stroke="#00000001">
<path d="M 139.500 43.000 C 139.160 43.550 139.332 44.000 139.882 44.000 C 140.432 44.000 141.160 43.550 141.500 43.000 C 141.840 42.450 141.668 42.000 141.118 42.000 C 140.568 42.000 139.840 42.450 139.500 43.000 "/></g>
<g fill="#33333305" stroke="#33333305">
<path d="M 65.422 210.874 C 65.805 211.493 66.654 211.986 67.309 211.970 C 67.964 211.953 67.651 211.446 66.613 210.843 C 65.224 210.037 64.910 210.045 65.422 210.874 "/></g>
<g fill="#33333305" stroke="#33333305">
<path d="M 109.750 39.666 C 109.338 40.033 109.030 40.821 109.066 41.417 C 109.102 42.013 109.439 41.712 109.816 40.750 C 110.192 39.787 110.163 39.300 109.750 39.666 "/></g>
<g fill="#2A4A97FF" stroke="#2A4A97FF">
<path d="M 224.500 201.500 L 226.000 203.000 224.500 201.500 L 223.000 200.000 224.500 201.500 "/></g>
<g fill="#2A4A97FF" stroke="#2A4A97FF">
<path d="M 162.500 52.500 L 164.000 54.000 162.500 52.500 L 161.000 51.000 162.500 52.500 "/></g>
<g fill="#00000001" stroke="#00000001">
<path d="M 101.378 208.378 L 100.500 209.256 101.378 208.378 L 102.256 207.500 101.378 208.378 "/></g>
<g fill="#00000001" stroke="#00000001">
<path d="M 251.030 132.691 C 251.014 133.346 251.507 134.195 252.126 134.578 C 252.955 135.090 252.963 134.776 252.157 133.387 C 251.554 132.349 251.047 132.036 251.030 132.691 "/></g>
<g fill="#00000001" stroke="#00000001">
<path d="M 217.843 49.613 C 218.446 50.651 218.953 50.964 218.970 50.309 C 218.986 49.654 218.493 48.805 217.874 48.422 C 217.045 47.910 217.037 48.224 217.843 49.613 "/></g>
<g fill="#00000001" stroke="#00000001">
<path d="M 212.030 35.691 C 212.014 36.346 212.507 37.195 213.126 37.578 C 213.955 38.090 213.963 37.776 213.157 36.387 C 212.554 35.349 212.047 35.036 212.030 35.691 "/></g>
<g fill="#00000001" stroke="#00000001">
<path d="M 116.750 26.666 C 116.338 27.033 116.030 27.821 116.066 28.417 C 116.102 29.013 116.439 28.712 116.816 27.750 C 117.192 26.787 117.163 26.300 116.750 26.666 "/></g>
<g fill="#00000001" stroke="#00000001">
<path d="M 203.500 21.500 L 205.000 23.000 203.500 21.500 L 202.000 20.000 203.500 21.500 "/></g>
<g fill="#2A63ADFF" stroke="#2A63ADFF">
<path d="M 196.500 16.500 L 198.000 18.000 196.500 16.500 L 195.000 15.000 196.500 16.500 "/></g>
</svg>
